HIERARCHY
ROOT hip
{
	OFFSET 0.000000 0.000000 0.000000 
	CHANNELS 6 Xposition Yposition Zposition Xrotation Zrotation Yrotation
	JOINT abdomen
	{
		OFFSET 0.000000 3.402643 0.000000 
		CHANNELS 3 Xrotation Zrotation Yrotation
		JOINT chest
		{
			OFFSET 0.000000 8.438565 -0.680529 
			CHANNELS 3 Xrotation Zrotation Yrotation
			JOINT neck
			{
				OFFSET 0.000000 9.885400 -0.272212 
				CHANNELS 3 Xrotation Zrotation Yrotation
				JOINT head
				{
					OFFSET 0.000000 3.130431 0.000000 
					CHANNELS 3 Xrotation Zrotation Yrotation
					End Site
					{
						OFFSET 0.000000 3.039250 0.000000 
					}
				}
			}
			JOINT lCollar
			{
				OFFSET 3.238290 6.669187 -0.816635 
				CHANNELS 3 Yrotation Zrotation Xrotation
				JOINT lShldr
				{
					OFFSET 2.515050 0.000000 0.000000 
					CHANNELS 3 Zrotation Yrotation Xrotation
					JOINT lForeArm
					{
						OFFSET 11.517700 0.000000 0.000000 
						CHANNELS 3 Yrotation Zrotation Xrotation
						JOINT lHand
						{
							OFFSET 9.026700 0.000000 0.000000 
							CHANNELS 3 Zrotation Yrotation Xrotation
							End Site
							{
								OFFSET 4.028470 0.000000 0.000000 
							}
						}
					}
				}
			}
			JOINT rCollar
			{
				OFFSET -3.238290 6.669187 -0.816635 
				CHANNELS 3 Yrotation Zrotation Xrotation
				JOINT rShldr
				{
					OFFSET -2.515050 0.000000 0.000000 
					CHANNELS 3 Zrotation Yrotation Xrotation
					JOINT rForeArm
					{
						OFFSET -11.517700 0.000000 0.000000 
						CHANNELS 3 Yrotation Zrotation Xrotation
						JOINT rHand
						{
							OFFSET -9.026700 0.000000 0.000000 
							CHANNELS 3 Zrotation Yrotation Xrotation
							End Site
							{
								OFFSET -4.028470 0.000000 0.000000 
							}
						}
					}
				}
			}
		}
	}
	JOINT lThigh
	{
		OFFSET 4.983750 -1.633274 1.361059 
		CHANNELS 3 Xrotation Zrotation Yrotation
		JOINT lShin
		{
			OFFSET -2.041588 -20.007561 0.000000 
			CHANNELS 3 Xrotation Zrotation Yrotation
			JOINT lFoot
			{
				OFFSET 0.000000 -19.190928 -1.224953 
				CHANNELS 3 Xrotation Yrotation Zrotation
				End Site
				{
					OFFSET 0.000000 -2.449906 4.627600 
				}
			}
		}
	}
	JOINT rThigh
	{
		OFFSET -4.983750 -1.633274 1.361059 
		CHANNELS 3 Xrotation Zrotation Yrotation
		JOINT rShin
		{
			OFFSET 2.041588 -20.007561 0.000000 
			CHANNELS 3 Xrotation Zrotation Yrotation
			JOINT rFoot
			{
				OFFSET 0.000000 -19.190928 -1.224953 
				CHANNELS 3 Xrotation Yrotation Zrotation
				End Site
				{
					OFFSET 0.000000 -2.449906 4.627600 
				}
			}
		}
	}
}
MOTION
Frames: 6
Frame Time: 0.048840
6.518879 44.593914 82.624123 2.814220 1.999540 1.709880 6.937000 0.275572 0.287293 2.973000 0.118102 0.123126 25.735901 -6.305880 1.818830 18.219400 2.233650 2.132410 2.000000 -2.000000 0.000000 -1.282000 -57.197899 154.436996 41.562901 -0.317144 0.090761 0.064810 -0.056849 -157.673996 -2.000000 2.000000 0.000000 -1.662300 65.061096 143.998993 -40.195702 0.319279 0.088240 -0.061967 0.048690 -154.587997 -18.714619 1.994808 -3.633371 24.357052 2.999895 1.816691 -8.148423 6.982400 1.959006 8.984230 -1.754215 -0.584992 16.245472 -8.099456 -0.965672 -24.132248 -6.410646 -0.833150 
7.697423 44.943100 84.500290 3.031380 2.954850 -1.776890 7.066360 -0.015378 1.633853 3.028440 -0.006591 0.700223 25.322100 -5.892540 2.042970 18.006901 2.435200 2.212630 2.000000 -2.000000 0.000000 -1.292950 -56.960400 155.862000 42.080502 -0.316321 0.091681 0.065903 -0.059652 -158.748001 -2.000000 2.000000 0.000000 0.735133 64.655296 146.761002 -39.424198 0.320458 0.086826 -0.061533 0.047307 -154.070007 -15.696449 0.528402 -0.967172 23.758471 2.902849 1.805251 -10.509628 7.211872 2.410919 8.024175 -4.796770 1.521893 20.294422 -7.127726 -1.168654 -21.505648 -5.843820 -0.897016 
8.616911 45.420135 86.144791 4.174260 2.610250 -3.158920 6.740299 -0.080573 1.912369 2.888700 -0.034532 0.819587 24.628000 -6.637270 2.204380 17.739599 2.153930 2.268680 2.000000 -2.000000 0.000000 -1.016710 -56.206299 156.847000 42.383202 -0.315835 0.092216 0.065964 -0.059805 -158.806000 -2.000000 2.000000 0.000000 2.574090 64.358299 148.751999 -39.297298 0.320650 0.086592 -0.060910 0.045239 -153.298996 -13.740507 -0.085564 -0.734035 21.588312 2.821454 1.684096 -11.454467 8.048488 2.779513 5.277712 -6.545483 1.157473 25.203365 -5.348282 -1.508831 -16.990622 -5.020699 -1.419550 
9.147188 45.727261 87.574852 4.770760 2.656790 -4.719540 6.260311 0.600903 2.517872 2.682991 0.257530 1.079088 23.552200 -6.658960 2.378190 17.192900 2.207550 2.288520 2.000000 -2.000000 0.000000 0.284489 -56.071602 155.919998 42.070702 -0.316336 0.091664 0.065964 -0.059805 -158.806000 -2.000000 2.000000 0.000000 2.372980 63.772499 148.673996 -39.473099 0.320383 0.086916 -0.061042 0.045685 -153.464996 -11.726214 -0.696196 -0.369982 19.918066 2.820826 1.571113 -12.294659 9.221252 3.219458 0.586286 -7.960100 1.018956 33.098499 -3.953779 -2.106101 -11.427016 -4.878735 -1.683027 
9.382060 45.922493 88.968735 4.805540 3.804980 -6.115310 6.631240 0.395373 2.816464 2.841960 0.169445 1.207056 23.392099 -6.838580 2.718000 17.221701 2.159690 2.464050 2.000000 -2.000000 0.000000 2.058390 -55.862701 153.136993 41.308998 -0.317545 0.090307 0.065261 -0.058024 -158.123001 -2.000000 2.000000 0.000000 1.896840 64.183701 148.156006 -39.658600 0.320101 0.087257 -0.061590 0.047490 -154.139008 -9.290623 -2.314353 0.415478 18.208838 2.738818 1.476134 -12.792403 9.661712 3.516569 -4.744191 -10.015819 0.361006 39.370102 -3.363347 -2.550073 -11.968943 -6.544289 -2.453566 
9.326239 46.117992 90.338150 4.824950 3.775670 -6.927020 6.719580 0.455730 2.854593 2.879820 0.195313 1.223397 23.529900 -7.038730 2.997890 17.359400 2.243700 2.587130 2.000000 -2.000000 0.000000 2.187520 -55.943699 151.800995 40.644901 -0.318584 0.089110 0.064218 -0.055261 -157.067993 -2.000000 2.000000 0.000000 1.205040 64.251404 148.468994 -40.205502 0.319264 0.088258 -0.061679 0.047777 -154.246002 -7.048893 -2.452221 0.736254 16.990482 2.897198 1.329406 -13.568848 10.082432 3.740872 -9.335608 -11.235265 -0.614800 38.650280 -3.300880 -2.555885 -15.813654 -7.323856 -3.084196 
